<?xml version="1.0" standalone="no"?><!DOCTYPE svg PUBLIC "-//W3C//DTD SVG 1.1//EN" "http://www.w3.org/Graphics/SVG/1.1/DTD/svg11.dtd"><svg t="1700573940401" class="icon" viewBox="0 0 1024 1024" version="1.1" xmlns="http://www.w3.org/2000/svg" p-id="2254" xmlns:xlink="http://www.w3.org/1999/xlink" width="200" height="200"><path d="M442.879815 622.506834a35.882652 35.882652 0 0 0 25.429323 61.397308 36.053318 36.053318 0 0 0 25.47199-10.495996l135.807943-135.807943a36.266652 36.266652 0 0 0 0-51.199979l-135.807943-135.679943a35.925318 35.925318 0 0 0-50.901313 0 35.925318 35.925318 0 0 0 0 50.858645l74.325303 74.325302-481.109133 0.085334A35.967985 35.967985 0 0 0 0.085333 512.000213c0 19.882658 16.213327 36.095985 36.010652 36.095985l481.109133 0.085334-74.325303 74.325302z" fill="#515151" opacity=".65" p-id="2255"></path><path d="M983.67959 312.78963a510.421121 510.421121 0 0 0-109.653288-162.773266A510.293121 510.293121 0 0 0 511.999787 0.000427c-81.279966 0-159.103934 18.517326-231.210571 55.039977A514.943785 514.943785 0 0 0 104.53329 202.240342c-12.074662 15.78666-8.959996 38.399984 6.826664 50.346646 15.78666 12.117328 38.399984 9.002663 50.346645-6.826664a443.562482 443.562482 0 0 1 151.722604-126.463947A434.901152 434.901152 0 0 1 511.999787 72.02173a437.717151 437.717151 0 0 1 311.082537 128.810613A439.338484 439.338484 0 0 1 951.97827 512.000213a437.717151 437.717151 0 0 1-128.810613 311.082537A439.338484 439.338484 0 0 1 511.999787 951.978697c-69.887971 0-136.703943-15.871993-198.826584-47.359981a444.501148 444.501148 0 0 1-151.679937-126.506614 35.967985 35.967985 0 0 0-57.173309 43.605316 516.351785 516.351785 0 0 0 176.469259 147.199938c72.106637 36.479985 149.930604 54.99731 231.210571 54.997311 69.119971 0 136.191943-13.525328 199.295917-40.23465a509.439788 509.439788 0 0 0 162.687932-109.653288A510.293121 510.293121 0 0 0 1023.999573 512.000213c0-69.119971-13.482661-136.191943-40.319983-199.210583z" fill="#515151" opacity=".65" p-id="2256"></path></svg>