<?xml version="1.0" standalone="no"?><!DOCTYPE svg PUBLIC "-//W3C//DTD SVG 1.1//EN" "http://www.w3.org/Graphics/SVG/1.1/DTD/svg11.dtd"><svg t="1700573141504" class="icon" viewBox="0 0 1024 1024" version="1.1" xmlns="http://www.w3.org/2000/svg" p-id="2008" xmlns:xlink="http://www.w3.org/1999/xlink" width="200" height="200"><path d="M452.096 458.752c-108.032 0-196.096-85.504-196.096-190.976s88.064-190.464 196.096-190.464c108.032 0 196.096 85.504 196.096 190.976s-87.552 190.464-196.096 190.464z m0-321.536c-74.752 0-135.168 58.368-135.168 130.048 0 72.192 60.928 130.048 135.168 130.048s135.168-58.368 135.168-130.048-60.416-130.048-135.168-130.048z m378.368 718.848c-16.384 0-30.208-13.824-30.208-30.208 0-130.56-87.552-270.848-333.824-270.848-161.28 0-333.824 71.168-333.824 270.848 0 16.384-13.824 30.208-30.208 30.208s-30.208-13.824-30.208-30.208c0-104.448 40.96-190.976 118.272-249.856 70.144-53.248 164.864-81.408 275.968-81.408s205.824 28.16 275.968 81.408c77.312 59.392 118.272 145.92 118.272 249.856 0 16.384-13.824 30.208-30.208 30.208z" p-id="2009" fill="#707070"></path><path d="M837.632 859.648h-743.424c-12.288 0-22.528-10.24-22.528-22.528v-9.728c0-12.288 10.24-22.528 22.528-22.528h743.424c12.288 0 22.528 10.24 22.528 22.528v9.728c0 12.8-10.24 22.528-22.528 22.528zM925.184 308.736h-180.736c-15.872 0-29.184-13.312-29.184-29.184s13.312-29.184 29.184-29.184h180.736c15.872 0 29.184 13.312 29.184 29.184-0.512 16.384-13.312 29.184-29.184 29.184z" p-id="2010" fill="#707070"></path><path d="M863.744 189.44v180.736c0 15.872-13.312 29.184-29.184 29.184s-29.184-12.8-29.184-29.184V189.44c0-15.872 13.312-29.184 29.184-29.184s29.184 13.312 29.184 29.184z" p-id="2011" fill="#707070"></path></svg>